<svg xmlns="http://www.w3.org/2000/svg" width="105" height="18.573" viewBox="0 0 105 18.573">
  <g transform="translate(-188.057 -256.444)">
    <path d="M198.057,260.007h-4.01l-5.99,16.513H190.7l1.746-4.787.729-2.031,2.88-7.949,2.876,7.949.732,2.031,1.746,4.787h2.643Z" transform="translate(0 -2.76)" fill="#142647"/>
    <path d="M282.042,283.2l-2.312.826a2.719,2.719,0,0,0-2.736-2.17,3.234,3.234,0,0,0-3.279,3.3v4.388h3.067v2.053h-7.974v-2.053h2.359v-4.317a5.8,5.8,0,0,1,1.109-3.539h-3.539v-2.053h3.586v1.982a5.778,5.778,0,0,1,4.671-2.147A4.817,4.817,0,0,1,282.042,283.2Z" transform="translate(-62.491 -17.834)" fill="#142647"/>
    <path d="M347.082,275.738c0,2.265-1.793,3.657-4.2,3.657-2.736,0-4.128-1.84-4.128-4.836v-5.19H335.5v-2.052h2.171c.967,0,1.085-.519,1.085-1.557v-2.406H341.3v3.964h4.246v2.052H341.3v5.19c0,1.628.566,2.642,1.722,2.642,1.085,0,1.888-.9,1.888-2.383Z" transform="translate(-114.204 -5.351)" fill="#142647"/>
    <path d="M409.78,286.108l-.189-.023v.023h-9.909a3.707,3.707,0,0,0,3.846,3.61,3.38,3.38,0,0,0,3.515-2.5l2.288,1.109c-.708,2.241-2.973,3.657-5.756,3.657a6.108,6.108,0,0,1-6.441-6.3c0-3.68,2.524-6.11,6.37-6.11A5.887,5.887,0,0,1,409.78,286.108ZM399.9,284.22h7.148a3.491,3.491,0,0,0-3.515-2.383A3.65,3.65,0,0,0,399.9,284.22Z" transform="translate(-161.945 -17.915)" fill="#142647"/>
    <path d="M463.376,279.88H465.9v1.934a3.054,3.054,0,0,1,3.02-2.241,3.694,3.694,0,0,1,3.68,2.737,3.617,3.617,0,0,1,3.728-2.737c2.784,0,4.907,2.288,4.907,5.733v6.417h-2.524v-6.417c0-2.147-.944-3.586-2.477-3.586s-2.666,1.439-2.666,3.586v6.417h-2.524v-6.417c0-2.147-.944-3.586-2.5-3.586-1.533,0-2.642,1.392-2.642,3.468v6.535h-2.524Z" transform="translate(-213.254 -17.915)" fill="#142647"/>
    <path d="M553.476,271.708h3.657v-7.714h-3.657v-2.029h6.11v9.743H563.1v2.053h-9.625Zm4.506-15.264a1.722,1.722,0,1,1-1.722,1.722A1.7,1.7,0,0,1,557.982,256.444Z" transform="translate(-283.042)" fill="#142647"/>
    <path d="M608.014,287.9c.33,1.321,1.3,1.958,3.232,1.934,1.652-.023,2.855-.543,2.855-1.439,0-.708-.708-1.2-2.855-1.557-3.562-.542-5.143-1.769-5.143-3.728,0-2.406,2.053-3.539,5.143-3.539,3.02,0,4.742,1.109,4.978,2.878l-2.288.66c-.094-.92-.944-1.439-2.69-1.439-1.533,0-2.642.4-2.642,1.439,0,.661.472,1.18,2.642,1.581,3.539.59,5.379,1.793,5.379,3.7,0,2.335-2.147,3.563-5.379,3.563-3.3,0-5.214-1.3-5.45-3.3Z" transform="translate(-323.568 -17.915)" fill="#142647"/>
    <path d="M214.918,299.766l-3.536-9.752-3.536,9.752,3.536,1.253Z" transform="translate(-15.328 -26.002)" fill="#00dd95"/>
  </g>
</svg>